<svg width="194" height="138" viewBox="0 0 194 138" fill="none" xmlns="http://www.w3.org/2000/svg">
<path d="M55.2742 53.521C52.765 60.922 49.98 66.5828 46.9195 70.4111C54.737 69.1611 62.5546 67.911 70.3651 66.6609C74.1537 51.4115 77.9211 36.6735 81.6532 22.454C76.4792 22.5676 71.3052 22.6813 66.1382 22.7878C62.5334 32.7031 58.9073 42.9452 55.2742 53.521ZM70.0541 116.06C72.4361 106.28 74.804 96.6981 77.1648 87.3083C61.6428 90.8668 46.1278 94.4252 30.6129 97.9836C28.1814 108.694 25.7428 119.604 23.2972 130.706C15.5291 133.142 7.76101 135.571 0 138C4.56613 116.585 9.09692 95.8315 13.5924 75.7452C16.3985 75.2978 19.2046 74.8432 22.0107 74.3957C25.7216 69.3741 29.4395 60.9504 33.1433 49.4441C37.5681 36.7232 41.9717 24.4498 46.354 12.631C49.4923 3.73139 54.6169 -0.35264 61.7488 0.0238006C73.7296 0.613321 85.7104 1.20994 97.6912 1.79946C102.243 2.02675 106.802 2.25403 111.354 2.48132C106.845 18.0148 102.286 34.3438 97.6912 51.4612C96.6875 55.1972 95.6838 58.9616 94.673 62.7758C95.6838 62.6124 96.6875 62.449 97.6912 62.2928C100.462 61.8453 103.24 61.405 106.011 60.9575C103.254 70.9651 100.476 81.2569 97.6912 91.8327C96.221 97.4083 94.7437 103.062 93.2664 108.794C85.5266 111.216 77.7939 113.638 70.0541 116.06ZM147.855 72.7763C141.359 74.3105 135.747 74.9781 131.025 74.6656C126.304 74.346 122.586 73.1599 119.879 71.0859C117.171 69.0119 115.235 66.1495 114.083 62.5272C112.923 58.8409 112.506 54.6574 112.839 50.0833C113.171 45.5021 114.125 40.3953 115.701 34.8836C119.363 22.1202 124.6 13.526 131.428 8.91633C138.249 4.27119 147.48 2.58076 159.143 3.25551C165.54 3.62485 171.039 4.54109 175.648 5.9048C180.313 7.27561 183.974 8.97315 186.632 10.9974C189.339 12.9719 191.297 15.2874 192.506 17.9793C193.714 20.6783 194.188 23.5833 193.933 26.7866C193.728 29.9402 192.915 33.4631 191.467 37.4761C188.045 47.0079 182.864 54.6148 175.944 60.1336C169.074 65.5529 159.701 69.9637 147.855 72.7763ZM149.219 55.9856C154.089 55.1688 157.941 53.3363 160.769 50.616C163.596 47.8389 166.049 43.3642 168.12 37.327C170.297 31.1192 170.558 26.6517 168.911 23.5478C167.321 20.4652 163.603 18.9027 157.751 18.9666C152.916 19.0234 149.071 20.2451 146.194 22.7594C143.381 25.2595 140.949 29.8408 138.899 36.6238C136.616 43.6909 136.284 49.1032 137.917 52.4698C139.55 55.8507 143.317 56.9942 149.219 55.9856Z" fill="url(#paint0_linear_78_790)"/>
<defs>
<linearGradient id="paint0_linear_78_790" x1="0" y1="69" x2="288.008" y2="101.611" gradientUnits="userSpaceOnUse">
<stop stop-color="#571EE6"/>
<stop offset="1" stop-color="#180841"/>
</linearGradient>
</defs>
</svg>
