<svg width="316" height="175" viewBox="0 0 316 175" fill="none" xmlns="http://www.w3.org/2000/svg">
<path d="M191.942 21.2302C192.844 18.6491 193.747 16.0889 194.649 13.5498C192.341 13.6127 190.039 13.6757 187.731 13.7386C186.829 16.3268 185.926 18.9289 185.024 21.552C182.373 21.6779 179.722 21.8038 177.071 21.9297C179.484 14.8019 181.904 7.79989 184.318 0.923828C186.969 0.937818 189.62 0.944813 192.264 0.958803C191.361 3.47699 190.459 6.00917 189.557 8.56234C191.865 8.52736 194.166 8.49239 196.468 8.45741C197.37 5.95321 198.272 3.463 199.175 0.986783C201.826 0.993778 204.477 1.00777 207.128 1.01476C204.715 7.5061 202.309 14.1163 199.895 20.8525C197.244 20.9784 194.593 21.1043 191.942 21.2302ZM221.915 12.0598C221.964 9.49966 222.006 6.9395 222.055 4.37934C220.237 6.9465 218.425 9.55562 216.606 12.1927C218.376 12.1508 220.146 12.1018 221.915 12.0598ZM221.776 19.8242C221.797 18.733 221.818 17.6488 221.839 16.5646C219.034 16.6695 216.236 16.7814 213.431 16.8864C212.661 18.0265 211.892 19.1737 211.122 20.3209C208.38 20.4538 205.631 20.5797 202.889 20.7126C207.03 14.7809 211.171 9.04499 215.305 3.48399C215.935 2.60262 216.599 1.98007 217.285 1.60934C217.998 1.2456 218.859 1.06373 219.866 1.07072C222.937 1.07772 226.008 1.09171 229.078 1.1057C229.127 7.2263 229.176 13.3469 229.225 19.4675C226.742 19.5864 224.259 19.7053 221.776 19.8242ZM249 18.5372C246.349 18.6631 243.698 18.789 241.04 18.9149C241.739 17.1522 242.439 15.4034 243.131 13.6687C242.425 13.6897 241.711 13.7106 240.998 13.7316C239.445 13.7876 238.074 13.6966 236.892 13.4658C235.731 13.235 234.8 12.8992 234.101 12.4445C233.401 11.9969 232.884 11.4443 232.541 10.7937C232.219 10.1502 232.058 9.4437 232.072 8.68125C232.107 7.90481 232.296 7.07241 232.646 6.19804C233.317 4.49826 233.982 2.80548 234.653 1.12668C237.304 1.14067 239.955 1.14767 242.607 1.16166C241.816 3.09227 241.026 5.04387 240.235 7.00945C239.522 8.78618 240.41 9.65355 242.9 9.59759C243.537 9.5836 244.173 9.57661 244.81 9.56262C245.957 6.73665 247.104 3.94566 248.252 1.18264C250.903 1.18964 253.554 1.20363 256.198 1.21062C253.799 6.86256 251.399 12.6404 249 18.5372ZM268.586 17.6208C269.481 15.5293 270.377 13.4588 271.272 11.4093C268.971 11.4722 266.662 11.5352 264.361 11.5982C263.466 13.6966 262.563 15.8091 261.668 17.9426C259.017 18.0685 256.366 18.1944 253.715 18.3203C256.114 12.5005 258.513 6.7996 260.912 1.23161C263.564 1.2456 266.215 1.25259 268.859 1.26658C267.963 3.29512 267.068 5.34465 266.173 7.40817C268.474 7.37319 270.782 7.33822 273.084 7.30324C273.979 5.2817 274.874 3.28113 275.77 1.29456C278.421 1.30156 281.072 1.31555 283.723 1.32254C281.331 6.50582 278.931 11.808 276.539 17.2431C273.888 17.369 271.237 17.4949 268.586 17.6208ZM298.28 16.2218C299.658 13.2979 301.036 10.416 302.414 7.56905C298.678 10.451 294.936 13.4448 291.194 16.5506C287.892 16.7115 284.583 16.8654 281.275 17.0193C283.667 11.6681 286.066 6.44286 288.459 1.34353C291.103 1.35052 293.754 1.36451 296.405 1.37151C294.985 4.33737 293.558 7.35221 292.131 10.402C295.069 8.07269 298 5.81331 300.931 3.61689C301.952 2.79848 302.84 2.23189 303.603 1.91012C304.386 1.57436 305.275 1.41348 306.268 1.41348C308.646 1.42047 311.024 1.43446 313.403 1.44146C311.017 6.12109 308.625 10.9196 306.233 15.8441C303.582 15.97 300.931 16.0959 298.28 16.2218ZM9.5971 79.8621C5.86179 80.3587 2.66508 80.0579 0 78.9317C0.559598 76.5744 1.12619 74.2241 1.68579 71.8808C3.79127 72.9371 6.28148 73.2798 9.17041 72.9301C10.7653 72.7342 11.9964 72.4194 12.8568 71.9927C13.7171 71.5311 14.2627 70.8316 14.4866 69.8803C14.6964 69.0129 14.6195 68.3693 14.2627 67.9496C13.927 67.502 13.3254 67.3201 12.465 67.418C9.96783 67.6978 7.47063 67.9776 4.98042 68.2574C5.54701 65.9071 6.1206 63.5568 6.69419 61.2135C8.80667 60.9966 10.9122 60.7868 13.0246 60.5769C14.0179 60.472 14.7594 60.2622 15.242 59.9404C15.7527 59.5977 16.0954 59.0311 16.2843 58.2546C16.3752 57.8699 16.4242 57.5131 16.4242 57.1844C16.4242 56.8626 16.3193 56.5758 16.1164 56.324C15.9276 56.0652 15.6547 55.8623 15.298 55.7084C14.9413 55.5476 14.4586 55.4426 13.8361 55.3937C13.2205 55.3447 12.479 55.3517 11.6117 55.4356C9.3243 55.6455 7.14187 56.1981 5.06436 57.1074C5.64494 54.7361 6.22552 52.3718 6.80611 50.0145C8.65977 49.1961 11.2199 48.6645 14.4796 48.4057C18.6416 48.0769 21.5095 48.7135 23.0904 50.2873C24.6643 51.8402 25.105 54.0786 24.4125 57.0235C23.9858 58.7722 23.2723 60.1922 22.279 61.2904C21.2857 62.3817 20.0756 63.1161 18.6486 63.4869C20.1315 63.7037 21.1668 64.5641 21.7474 66.054C22.3489 67.516 22.3769 69.2997 21.8313 71.4331C21.2367 73.9164 19.9427 75.826 17.9491 77.169C15.9625 78.4841 13.1785 79.3864 9.5971 79.8621ZM40.9346 63.3959C40.9975 59.5697 41.0605 55.7434 41.1234 51.9172C39.2908 55.9043 37.4581 59.9264 35.6184 63.9905C37.3951 63.7946 39.1648 63.5988 40.9346 63.3959ZM40.7527 75.0076C40.7807 73.3847 40.8017 71.7619 40.8296 70.1391C38.0247 70.4818 35.2197 70.8316 32.4217 71.1743C31.6383 72.9161 30.8618 74.6648 30.0854 76.4136C27.3363 76.7773 24.5873 77.141 21.8383 77.5048C26.0213 68.5302 30.1973 59.7445 34.3733 51.1477C35.0098 49.7767 35.6744 48.7974 36.3669 48.1889C37.0803 47.5803 37.9407 47.2375 38.955 47.1536C42.0258 46.9088 45.1036 46.657 48.1814 46.4051C48.1884 55.6105 48.1954 64.8159 48.2093 74.0213C45.7261 74.35 43.2359 74.6788 40.7527 75.0076ZM66.4662 51.0778C65.7108 51.1477 64.9483 51.2177 64.1859 51.2876C63.4444 54.0856 62.6959 56.8976 61.9475 59.7236C62.654 59.6466 63.3605 59.5697 64.06 59.4927C65.6898 59.3179 66.8509 58.9401 67.5504 58.3735C68.2429 57.779 68.7816 56.7507 69.1733 55.2887C69.6419 53.7149 69.6769 52.5957 69.2782 51.9242C68.8865 51.2247 67.9492 50.9379 66.4662 51.0778ZM64.9413 65.5644C63.3744 65.7532 61.8076 65.9421 60.2407 66.131C59.6741 68.2994 59.1075 70.4748 58.5339 72.6573C55.8828 73.007 53.2247 73.3568 50.5736 73.7135C53.0219 64.2213 55.4631 54.8551 57.9114 45.6217C61.3109 45.3419 64.7105 45.0691 68.117 44.7893C69.8378 44.6494 71.3347 44.7403 72.5868 45.0481C73.8459 45.3349 74.8392 45.8036 75.5737 46.4401C76.3081 47.0627 76.8328 47.8601 77.1545 48.8464C77.4693 49.8117 77.6092 50.8889 77.5533 52.0781C77.4973 53.2462 77.2735 54.5473 76.8817 55.9952C76.4201 57.667 75.8115 59.087 75.063 60.2692C74.3146 61.4443 73.4192 62.3886 72.37 63.0951C71.3207 63.8086 70.2085 64.3542 69.0474 64.739C67.8862 65.1027 66.5152 65.3755 64.9413 65.5644ZM91.6551 57.772C91.7111 54.2955 91.767 50.819 91.823 47.3425C89.9973 50.9798 88.1646 54.6522 86.3389 58.3595C88.1087 58.1637 89.8784 57.9678 91.6551 57.772ZM91.4802 68.3064C91.5082 66.8305 91.5292 65.3615 91.5572 63.8856C88.7522 64.2283 85.9472 64.5781 83.1422 64.9208C82.3658 66.5157 81.5893 68.1105 80.8129 69.7124C78.0639 70.0761 75.3219 70.4399 72.5728 70.8036C76.7418 62.5845 80.9108 54.5543 85.0728 46.7059C85.7094 45.4538 86.3739 44.5585 87.0664 43.9989C87.7729 43.4463 88.6403 43.1245 89.6476 43.0406C92.7253 42.7957 95.8031 42.5439 98.8739 42.2921C98.8949 50.6371 98.9159 58.9821 98.9369 67.3201C96.4537 67.6489 93.9635 67.9776 91.4802 68.3064ZM116.578 55.3027C115.116 55.4706 113.654 55.6315 112.192 55.7924C111.773 57.2264 111.353 58.6673 110.933 60.1083C112.465 59.9194 113.99 59.7375 115.522 59.5557C116.515 59.4368 117.257 59.2199 117.746 58.9191C118.229 58.6184 118.565 58.1287 118.754 57.4642C118.977 56.6598 118.887 56.0792 118.495 55.7224C118.117 55.3447 117.481 55.2048 116.578 55.3027ZM101.301 67.0123C103.735 58.3805 106.17 49.8816 108.604 41.5087C115.032 40.984 121.468 40.4664 127.896 39.9418C127.336 41.7954 126.784 43.6561 126.224 45.5238C122.447 45.8805 118.67 46.2303 114.892 46.58C114.494 47.937 114.095 49.3011 113.696 50.6721C115.473 50.4902 117.257 50.3083 119.04 50.1265C122.23 49.8047 124.413 50.3993 125.602 51.8962C126.805 53.3931 127.022 55.4496 126.238 58.1007C125.63 60.1223 124.566 61.6822 123.049 62.7804C121.531 63.8786 119.495 64.606 116.949 64.9418C111.731 65.6343 106.512 66.3198 101.301 67.0123ZM144.705 51.8822C144.754 48.7764 144.81 45.6707 144.866 42.5649C143.04 45.8315 141.214 49.1332 139.389 52.4698C141.159 52.2739 142.928 52.0781 144.705 51.8822ZM144.544 61.2974C144.565 59.9824 144.593 58.6603 144.614 57.3453C141.809 57.695 139.004 58.0378 136.199 58.3805C135.43 59.8145 134.653 61.2555 133.877 62.7034C131.135 63.0672 128.386 63.4309 125.637 63.7946C129.799 56.366 133.954 49.1192 138.109 42.0543C138.745 40.9351 139.403 40.1236 140.095 39.62C140.809 39.1164 141.669 38.8226 142.683 38.7456C145.754 38.4938 148.832 38.242 151.903 37.9972C151.938 45.4328 151.973 52.8755 152.001 60.3111C149.518 60.6399 147.027 60.9687 144.544 61.2974ZM176.252 41.3198C174.252 41.5087 172.244 41.6975 170.237 41.8864C168.425 47.3914 166.613 52.9734 164.802 58.6184C162.353 58.9471 159.912 59.2689 157.464 59.5907C157.254 59.6186 157.044 59.6466 156.834 59.6746C157.044 59.0171 157.247 58.3665 157.457 57.716C159.066 52.6307 160.668 47.6083 162.276 42.6348C160.647 42.7887 159.017 42.9356 157.387 43.0895C156.946 43.1315 156.505 43.1735 156.058 43.2154C156.499 41.8514 156.932 40.4804 157.373 39.1234C157.548 38.5848 157.716 38.0461 157.891 37.5075C164.62 36.9619 171.356 36.4163 178.085 35.8707C177.476 37.6824 176.868 39.4941 176.252 41.3198ZM207.387 52.9944C204.736 53.3441 202.078 53.7009 199.427 54.0506C201.84 47.0906 204.253 40.2566 206.666 33.5554C209.318 33.3385 211.969 33.1217 214.627 32.9048C212.213 39.4801 209.8 46.1743 207.387 52.9944ZM189.242 47.1606C187.794 47.3285 186.339 47.4894 184.884 47.6502C184.457 48.8814 184.038 50.1195 183.611 51.3576C185.15 51.1757 186.689 50.9868 188.228 50.805C189.2 50.6861 189.92 50.4972 190.389 50.2314C190.879 49.9656 191.208 49.5599 191.396 49.0143C191.655 48.3427 191.592 47.8391 191.215 47.5103C190.837 47.1746 190.179 47.0627 189.242 47.1606ZM173.986 57.4082C176.406 50.0215 178.826 42.7538 181.24 35.6119C183.898 35.402 186.549 35.1852 189.2 34.9684C188.361 37.3886 187.521 39.8299 186.682 42.2781C188.354 42.1172 190.018 41.9493 191.69 41.7885C193.306 41.6276 194.691 41.7185 195.859 42.0473C197.02 42.355 197.881 42.8517 198.426 43.5302C198.979 44.1947 199.308 45.0201 199.427 45.9994C199.567 46.9647 199.413 48.021 198.972 49.1821C198.363 50.9868 197.293 52.3788 195.761 53.3581C194.243 54.3374 192.201 55.002 189.634 55.3447C184.415 56.0302 179.197 56.7227 173.986 57.4082ZM229.435 35.9407C228.169 36.0596 226.903 36.1785 225.637 36.2974C225.224 37.3886 224.811 38.4868 224.399 39.592C225.595 39.4731 226.798 39.3472 228.001 39.2283C228.952 39.1304 229.673 38.9485 230.163 38.6757C230.645 38.4029 230.988 37.9972 231.191 37.4516C231.632 36.2974 231.051 35.7938 229.435 35.9407ZM227.462 42.7747C225.98 42.9356 224.497 43.1035 223.021 43.2644C222.587 44.4326 222.153 45.6007 221.72 46.7759C223.314 46.58 224.909 46.3911 226.504 46.1953C227.421 46.0904 228.106 45.9085 228.554 45.6707C229.022 45.4258 229.358 45.0481 229.561 44.5305C230.058 43.1455 229.358 42.5649 227.462 42.7747ZM212.102 52.3718C214.515 45.6287 216.928 39.0184 219.334 32.5271C224.049 32.1424 228.764 31.7577 233.478 31.3799C235.989 31.1771 237.752 31.5548 238.752 32.5131C239.753 33.4574 239.956 34.7095 239.347 36.2834C238.927 37.3886 238.221 38.291 237.227 39.0114C236.241 39.7319 235.038 40.2356 233.611 40.5224C235.094 40.5853 236.143 41.068 236.745 41.9633C237.353 42.8657 237.395 43.9779 236.864 45.3279C236.325 46.7269 235.381 47.8181 234.017 48.5946C232.653 49.364 230.694 49.9166 228.141 50.2524C222.797 50.9589 217.446 51.6654 212.102 52.3718ZM255.918 39.5361C255.96 37.2067 256.002 34.8774 256.044 32.5481C254.232 35.0383 252.414 37.5635 250.595 40.1236C252.372 39.9278 254.141 39.7319 255.918 39.5361ZM255.785 46.601C255.806 45.6147 255.82 44.6284 255.841 43.6351C253.036 43.9849 250.231 44.3276 247.426 44.6774C246.657 45.7826 245.887 46.8948 245.118 48.014C242.369 48.3777 239.62 48.7415 236.878 49.0982C241.012 43.3204 245.153 37.7244 249.287 32.3103C249.916 31.4569 250.581 30.8273 251.266 30.4356C251.98 30.0439 252.84 29.8061 253.855 29.7221C256.925 29.4773 260.003 29.2255 263.074 28.9737C263.13 34.5207 263.186 40.0747 263.242 45.6217C260.759 45.9435 258.268 46.2722 255.785 46.601ZM287.444 30.8763C285.437 31.0652 283.429 31.254 281.422 31.4429C279.631 35.535 277.833 39.697 276.043 43.9289C273.384 44.2787 270.733 44.6284 268.075 44.9782C269.873 40.6483 271.671 36.3813 273.461 32.1914C271.391 32.3802 269.32 32.5761 267.25 32.7719C267.851 31.338 268.46 29.911 269.062 28.491C275.791 27.9454 282.52 27.3998 289.249 26.8542C288.648 28.1832 288.046 29.5263 287.444 30.8763ZM300.455 34.7585C299 34.9194 297.552 35.0803 296.097 35.2412C295.677 36.1505 295.258 37.0599 294.831 37.9762C296.37 37.7873 297.909 37.6055 299.448 37.4166C300.42 37.3047 301.148 37.1438 301.609 36.9339C302.099 36.7241 302.435 36.4233 302.616 36.0246C302.868 35.528 302.812 35.1712 302.435 34.9404C302.05 34.7165 301.392 34.6536 300.455 34.7585ZM285.227 42.7118C287.626 37.2137 290.019 31.8416 292.411 26.5954C295.069 26.3785 297.72 26.1687 300.371 25.9518C299.539 27.7216 298.706 29.5053 297.881 31.303C299.546 31.1351 301.217 30.9742 302.882 30.8063C304.498 30.6455 305.883 30.6734 307.051 30.8763C308.219 31.0652 309.08 31.3939 309.632 31.8696C310.178 32.3243 310.521 32.9048 310.64 33.5973C310.78 34.2828 310.633 35.0453 310.192 35.8917C309.59 37.1998 308.527 38.235 306.995 38.9975C305.484 39.7529 303.442 40.3055 300.868 40.6483C295.656 41.3338 290.438 42.0263 285.227 42.7118ZM29.4628 124.126C30.3792 120.356 31.2955 116.6 32.2188 112.864C29.9035 113.319 27.5952 113.781 25.2868 114.235C24.3705 118.013 23.4541 121.811 22.5308 125.63C19.8727 126.204 17.2146 126.784 14.5635 127.358C17.0188 117.047 19.474 106.863 21.9292 96.7969C24.5803 96.3562 27.2384 95.9155 29.8965 95.4749C28.9802 99.1822 28.0568 102.911 27.1405 106.653C29.4488 106.226 31.7572 105.799 34.0655 105.373C34.9888 101.672 35.9052 97.993 36.8215 94.3277C39.4726 93.887 42.1307 93.4463 44.7888 93.0056C42.3406 102.68 39.8853 112.473 37.4371 122.399C34.779 122.972 32.1209 123.553 29.4628 124.126ZM59.5482 106.408C59.6042 102.701 59.6671 98.9933 59.7301 95.293C57.8904 99.3081 56.0577 103.358 54.225 107.45C55.9947 107.1 57.7715 106.751 59.5482 106.408ZM59.3663 117.642C59.3873 116.068 59.4153 114.494 59.4433 112.927C56.6313 113.508 53.8263 114.095 51.0213 114.676C50.2449 116.432 49.4614 118.188 48.685 119.957C45.936 120.552 43.187 121.146 40.4309 121.748C44.6139 112.689 48.7899 103.827 52.9659 95.1461C53.6025 93.7681 54.267 92.7538 54.9665 92.1103C55.673 91.4597 56.5404 91.054 57.5546 90.8862C60.6324 90.3755 63.7102 89.8649 66.788 89.3543C66.802 98.2379 66.816 107.128 66.83 116.019C64.3398 116.558 61.8495 117.103 59.3663 117.642ZM101.791 89.7949C99.7833 90.1587 97.7687 90.5154 95.7612 90.8722C93.9355 97.4894 92.1168 104.177 90.2841 110.934C87.633 111.507 84.9749 112.088 82.3168 112.662C84.1425 105.806 85.9682 99.0143 87.7939 92.2991C85.7234 92.6699 83.6459 93.0406 81.5754 93.4113C82.1909 91.131 82.7995 88.8576 83.415 86.5912C90.1582 85.4721 96.8943 84.3529 103.631 83.2337C103.015 85.4161 102.399 87.6055 101.791 89.7949ZM115.396 86.8571C114.634 86.997 113.878 87.1299 113.116 87.2628C112.374 89.8719 111.626 92.495 110.884 95.1251C111.591 94.9922 112.29 94.8523 112.997 94.7194C114.634 94.4046 115.795 93.9569 116.487 93.3764C117.18 92.7748 117.725 91.7885 118.11 90.4245C118.579 88.9555 118.614 87.9343 118.215 87.3607C117.816 86.7661 116.879 86.5982 115.396 86.8571ZM113.885 100.148C112.318 100.469 110.751 100.791 109.185 101.113C108.618 103.134 108.051 105.163 107.485 107.205C104.827 107.779 102.169 108.353 99.5105 108.933C101.952 100.064 104.386 91.3198 106.82 82.702C110.227 82.1355 113.633 81.5759 117.04 81.0093C118.768 80.7225 120.258 80.6595 121.517 80.8274C122.776 80.9743 123.776 81.2961 124.51 81.8137C125.245 82.3033 125.77 82.9748 126.091 83.8422C126.413 84.6816 126.546 85.6399 126.497 86.7242C126.441 87.7874 126.224 88.9835 125.833 90.3336C125.371 91.8864 124.762 93.2365 124.014 94.3697C123.265 95.5098 122.37 96.4542 121.321 97.1956C120.272 97.9371 119.159 98.5387 117.998 99.0003C116.837 99.441 115.466 99.8257 113.885 100.148ZM124.762 103.456C127.197 95.0132 129.631 86.7032 132.058 78.5121C138.563 77.4348 145.069 76.3506 151.567 75.2734C151.014 77.0851 150.455 78.9038 149.902 80.7295C146.055 81.408 142.208 82.0935 138.361 82.779C137.99 84.0171 137.612 85.2622 137.241 86.5073C140.711 85.8638 144.173 85.2202 147.636 84.5767C147.062 86.4164 146.489 88.263 145.908 90.1167C142.453 90.8022 139.004 91.4807 135.549 92.1662C135.164 93.4393 134.786 94.7194 134.408 96.0065C138.256 95.216 142.103 94.4256 145.95 93.6352C145.397 95.4888 144.838 97.3495 144.285 99.2172C137.78 100.63 131.268 102.043 124.762 103.456ZM168.32 66.1939C168.04 67.0893 167.949 67.7118 168.047 68.0546C168.159 68.3973 168.474 68.5232 168.978 68.4463C169.957 68.2924 170.712 67.39 171.244 65.7462C172.972 65.4874 174.699 65.2286 176.427 64.9628C175.777 66.9354 174.853 68.3973 173.657 69.3347C172.461 70.258 170.754 70.9015 168.544 71.2583C166.236 71.636 164.62 71.4611 163.696 70.7267C162.787 69.9852 162.612 68.7261 163.172 66.9704C164.885 66.7115 166.599 66.4527 168.32 66.1939ZM165.13 94.6984C166.529 90.2146 167.928 85.7798 169.327 81.387C165.564 86.2275 161.801 91.173 158.037 96.2373C157.897 96.2653 157.765 96.2933 157.632 96.3213C154.449 97.0138 151.273 97.7063 148.091 98.3918C150.518 90.3545 152.945 82.4362 155.372 74.6438C156.093 74.5249 156.813 74.406 157.534 74.2871C159.464 73.9653 161.402 73.6436 163.34 73.3218C161.899 77.8895 160.451 82.5062 159.01 87.1718C161.962 83.3176 164.906 79.5403 167.858 75.826C168.887 74.455 169.782 73.4687 170.551 72.8671C171.335 72.2376 172.223 71.8458 173.223 71.678C175.602 71.2862 177.987 70.8875 180.372 70.4888C177.952 77.8615 175.532 85.3531 173.105 92.9707C170.446 93.5442 167.788 94.1178 165.13 94.6984ZM191.606 80.4287C190.809 82.1424 189.913 83.4715 188.92 84.3878C191.487 83.8702 194.048 83.3456 196.615 82.821C197.811 79.2465 199.014 75.7071 200.21 72.1956C198.503 72.5034 196.797 72.8042 195.083 73.1119C193.929 75.5322 192.767 77.9664 191.606 80.4287ZM196.657 94.0199C197.398 91.7955 198.147 89.5781 198.895 87.3747C193.824 88.4729 188.759 89.5711 183.688 90.6693C182.939 92.9567 182.191 95.251 181.436 97.5594C178.91 98.1469 176.385 98.7345 173.86 99.3221C175.238 95.0482 176.616 90.8162 177.994 86.6192C178.917 86.4304 179.834 86.2485 180.757 86.0596C181.953 84.9055 183.135 83.0378 184.304 80.4776C185.71 77.6237 187.108 74.8047 188.514 72.0137C189.515 69.9222 191.201 68.6911 193.565 68.2994C199.042 67.39 204.526 66.4807 210.003 65.5714C208.198 70.7057 206.394 75.9169 204.582 81.1911C205.82 80.9393 207.058 80.6875 208.303 80.4357C206.932 84.3389 205.568 88.284 204.204 92.2642C201.686 92.8517 199.168 93.4393 196.657 94.0199ZM226.371 81.415C227.756 77.5328 229.148 73.6995 230.54 69.9082C226.784 74.1472 223.028 78.4911 219.271 82.9539C215.956 83.6743 212.64 84.3948 209.325 85.1083C211.745 78.1063 214.158 71.2303 216.571 64.4801C219.222 64.0395 221.88 63.5988 224.539 63.1581C223.098 67.1103 221.664 71.1044 220.23 75.1405C223.175 71.7619 226.119 68.4463 229.064 65.1936C230.086 63.9905 230.981 63.1301 231.75 62.5985C232.534 62.0389 233.422 61.6822 234.415 61.5143C236.801 61.1226 239.186 60.7238 241.571 60.3321C239.158 66.6556 236.752 73.1049 234.339 79.6872C231.68 80.2608 229.022 80.8344 226.371 81.415ZM254.05 75.4063C254.946 73.07 255.848 70.7476 256.75 68.4393C254.435 68.901 252.127 69.3556 249.818 69.8103C248.916 72.1606 248.021 74.5249 247.118 76.9102C244.46 77.4908 241.802 78.0644 239.144 78.645C241.557 72.1466 243.964 65.7742 246.37 59.5347C249.028 59.094 251.679 58.6533 254.337 58.2126C253.435 60.493 252.539 62.7944 251.637 65.1097C253.945 64.683 256.254 64.2563 258.562 63.8296C259.465 61.5562 260.367 59.2969 261.262 57.0585C263.92 56.6178 266.571 56.1771 269.229 55.7364C266.83 61.5912 264.424 67.5719 262.018 73.6785C259.36 74.2591 256.701 74.8327 254.05 75.4063ZM290.599 56.0302C287.109 56.6528 283.618 57.2823 280.128 57.9049C278.33 62.1718 276.532 66.5157 274.735 70.9225C272.083 71.4961 269.425 72.0767 266.767 72.6503C269.167 66.6276 271.573 60.7238 273.972 54.953C280.121 53.9317 286.262 52.9105 292.411 51.8892C291.809 53.2602 291.201 54.6452 290.599 56.0302ZM288.361 67.9636C290.76 62.3047 293.159 56.7717 295.552 51.3646C302.057 50.2873 308.562 49.2101 315.061 48.1259C314.515 49.2941 313.969 50.4762 313.417 51.6584C309.569 52.3369 305.722 53.0224 301.875 53.7079C301.511 54.5193 301.148 55.3377 300.777 56.1631C304.239 55.5196 307.709 54.876 311.171 54.2325C310.605 55.4286 310.038 56.6388 309.472 57.8489C306.016 58.5344 302.561 59.2129 299.105 59.8984C298.727 60.7378 298.357 61.5912 297.979 62.4376C301.826 61.6472 305.68 60.8567 309.527 60.0733C308.982 61.2834 308.429 62.5076 307.884 63.7317C301.371 65.1447 294.866 66.5576 288.361 67.9636ZM31.5613 170.377C30.0924 171.79 28.2667 172.832 26.0912 173.497C23.9088 174.154 22.1811 174.28 20.901 173.854C21.5445 171.188 22.195 168.53 22.8386 165.879C23.8598 166.047 24.8811 165.977 25.9164 165.676C27.7211 165.159 29.1271 163.977 30.1413 162.158C30.1623 162.123 30.1833 162.095 30.1973 162.06C28.5395 156.177 26.8817 150.238 25.2239 144.237C27.7281 143.614 30.2253 142.985 32.7225 142.362C33.6808 145.748 34.6461 149.119 35.6044 152.47C38.0247 148.203 40.4449 143.985 42.8652 139.816C45.845 139.068 48.8249 138.319 51.8048 137.578C46.7404 145.951 41.669 154.519 36.6047 163.298C34.709 166.586 33.0233 168.957 31.5613 170.377ZM61.0031 162.249C61.9195 158.597 62.8358 154.967 63.7522 151.351C63.3674 151.463 62.9827 151.568 62.598 151.679C59.6881 155.862 56.7782 160.101 53.8683 164.396C50.8255 165.313 47.7826 166.236 44.7328 167.152C49.0348 160.731 53.3297 154.435 57.6316 148.252C56.0717 144.636 54.5188 140.977 52.9659 137.284C55.4701 136.654 57.9813 136.025 60.4855 135.395C61.8076 138.431 63.1296 141.439 64.4517 144.419C64.8364 144.314 65.2211 144.209 65.6058 144.104C66.5222 140.529 67.4385 136.969 68.3479 133.423C71.006 132.758 73.664 132.094 76.3291 131.422C75.4128 134.92 74.4965 138.424 73.5801 141.956C73.9858 141.845 74.3915 141.733 74.7902 141.628C77.6372 137.585 80.4771 133.604 83.3171 129.673C86.0871 128.974 88.8571 128.281 91.6271 127.589C87.7379 133.01 83.8487 138.536 79.9595 144.174C81.6943 147.811 83.436 151.407 85.1708 154.96C82.4148 155.786 79.6657 156.618 76.9097 157.45C75.6716 154.547 74.4335 151.63 73.1954 148.686C72.7127 148.819 72.2231 148.958 71.7334 149.098C70.8171 152.659 69.9008 156.24 68.9844 159.836C66.3263 160.64 63.6682 161.444 61.0031 162.249ZM87.7729 154.177C90.2141 144.894 92.6624 135.745 95.1036 126.714C101.609 125.085 108.121 123.448 114.634 121.818C114.074 123.825 113.514 125.833 112.955 127.848C109.101 128.862 105.253 129.869 101.399 130.883C101.028 132.247 100.658 133.618 100.28 134.996C103.749 134.059 107.219 133.122 110.681 132.184C110.108 134.22 109.527 136.263 108.954 138.312C105.491 139.284 102.036 140.257 98.5801 141.236C98.1954 142.642 97.8107 144.055 97.433 145.468C101.287 144.349 105.134 143.23 108.989 142.117C108.429 144.167 107.876 146.216 107.317 148.28C100.798 150.245 94.2852 152.211 87.7729 154.177ZM144.299 121.013C142.404 120.587 140.291 120.671 137.983 121.279C135.933 121.818 134.247 122.713 132.911 123.972C131.603 125.203 130.603 127.078 129.918 129.596C129.246 132.017 129.344 133.625 130.211 134.402C131.1 135.164 132.709 135.206 135.038 134.535C137.332 133.87 139.431 132.982 141.326 131.884C140.697 134.038 140.06 136.2 139.431 138.375C137.626 139.445 135.402 140.39 132.751 141.194C128.071 142.614 124.832 142.327 123.035 140.299C121.244 138.27 121.034 134.78 122.412 129.939C123.028 127.764 123.839 125.84 124.846 124.168C125.854 122.496 127.036 121.097 128.386 119.971C129.736 118.845 131.17 117.929 132.695 117.222C134.213 116.495 135.912 115.9 137.794 115.432C140.739 114.697 143.502 114.529 146.083 114.907C145.488 116.935 144.894 118.971 144.299 121.013ZM143.292 137.431C145.719 129.093 148.154 120.888 150.581 112.801C152.952 112.207 155.323 111.612 157.695 111.018C161.836 109.982 165.977 108.94 170.111 107.905C169.558 109.689 168.999 111.486 168.446 113.284C164.871 114.221 161.297 115.159 157.723 116.096C157.443 116.173 157.17 116.243 156.89 116.32C156.519 117.537 156.149 118.768 155.778 119.992C156.429 119.817 157.086 119.642 157.737 119.468C160.549 118.705 163.368 117.943 166.18 117.18C165.606 118.999 165.032 120.825 164.459 122.657C162.22 123.287 159.989 123.916 157.758 124.546C156.533 124.896 155.309 125.238 154.078 125.581C153.701 126.847 153.323 128.106 152.938 129.379C154.554 128.911 156.163 128.442 157.772 127.974C160.017 127.323 162.255 126.672 164.501 126.029C163.941 127.855 163.389 129.694 162.829 131.541C161.15 132.045 159.478 132.548 157.8 133.059C152.959 134.514 148.126 135.976 143.292 137.431ZM190.55 107.905C187.053 108.828 183.562 109.745 180.065 110.668C178.253 116.369 176.434 122.14 174.622 127.98C171.964 128.785 169.299 129.589 166.641 130.387C169.068 122.447 171.496 114.634 173.923 106.947C180.072 105.408 186.227 103.862 192.383 102.316C191.767 104.177 191.159 106.037 190.55 107.905ZM201.105 120.496C198.979 121.139 197.146 121.496 195.6 121.573C194.062 121.643 192.844 121.454 191.956 121.007C191.068 120.552 190.431 119.873 190.053 118.957C189.669 118.034 189.529 116.942 189.634 115.697C189.739 114.459 190.053 113.039 190.571 111.444C191.774 107.751 193.509 104.946 195.768 103.008C198.035 101.064 201.105 99.6369 204.974 98.6716C207.093 98.1399 208.919 97.8741 210.444 97.8671C211.99 97.8601 213.193 98.084 214.06 98.5317C214.948 98.9653 215.585 99.6089 215.97 100.462C216.347 101.316 216.487 102.323 216.382 103.484C216.299 104.617 216.005 105.925 215.508 107.415C214.333 110.948 212.598 113.725 210.311 115.739C208.044 117.726 204.981 119.321 201.105 120.496ZM201.581 115.446C203.183 114.977 204.449 114.256 205.379 113.277C206.317 112.277 207.135 110.745 207.835 108.688C208.576 106.569 208.681 105.086 208.142 104.219C207.632 103.344 206.408 103.155 204.47 103.659C202.875 104.079 201.595 104.771 200.644 105.743C199.706 106.709 198.902 108.234 198.217 110.332C197.461 112.522 197.342 114.074 197.881 114.963C198.412 115.844 199.643 116.005 201.581 115.446ZM229.442 103.722C228.645 105.359 227.749 106.653 226.763 107.59C229.323 106.849 231.89 106.107 234.457 105.366C235.654 102.008 236.85 98.6855 238.046 95.3839C236.339 95.8386 234.625 96.2863 232.919 96.7409C231.757 99.0493 230.603 101.372 229.442 103.722ZM234.513 115.501C235.262 113.403 236.003 111.318 236.752 109.248C231.673 110.78 226.602 112.312 221.524 113.837C220.775 115.991 220.027 118.16 219.278 120.335C216.753 121.132 214.221 121.937 211.696 122.741C213.074 118.705 214.445 114.704 215.823 110.752C216.739 110.486 217.663 110.22 218.586 109.954C219.782 108.779 220.964 106.961 222.132 104.512C223.531 101.784 224.937 99.0843 226.336 96.4122C227.337 94.4116 229.022 93.1315 231.387 92.537C236.871 91.159 242.362 89.781 247.846 88.4099C246.041 93.2225 244.243 98.112 242.439 103.064C243.677 102.708 244.922 102.351 246.16 101.987C244.796 105.653 243.432 109.36 242.075 113.102C239.55 113.907 237.032 114.704 234.513 115.501ZM262.109 101.602C263.011 99.2312 263.906 96.8808 264.809 94.5445C262.5 95.2021 260.185 95.8526 257.877 96.5031C256.974 98.8814 256.072 101.281 255.17 103.694C252.511 104.491 249.853 105.296 247.188 106.1C249.602 99.5249 252.015 93.0826 254.421 86.7591C257.079 86.0946 259.737 85.4231 262.395 84.7586C261.493 87.0739 260.598 89.3962 259.695 91.7465C262.004 91.124 264.319 90.5014 266.627 89.8719C267.53 87.5705 268.425 85.2902 269.327 83.0238C271.985 82.3523 274.644 81.6878 277.302 81.0232C274.902 86.955 272.496 93.0126 270.09 99.1962C267.432 99.9936 264.767 100.798 262.109 101.602ZM289.522 85.3461C290.34 85.1153 291.159 84.8915 291.977 84.6676C292.579 83.2337 293.18 81.7997 293.789 80.3797C292.879 80.6175 291.963 80.8554 291.054 81.1002C289.718 81.4499 288.731 81.8347 288.102 82.2614C287.465 82.688 287.011 83.2267 286.731 83.8912C286.367 84.8075 286.395 85.3811 286.808 85.591C287.228 85.8078 288.13 85.7239 289.522 85.3461ZM288.235 93.7191C288.934 92.0263 289.627 90.3336 290.326 88.6618C289.557 88.8786 288.78 89.1024 288.011 89.3193C286.087 91.3618 284.157 93.4323 282.226 95.5308C279.218 96.4402 276.21 97.3495 273.203 98.2519C275.875 95.4119 278.54 92.6139 281.205 89.8719C278.561 89.669 277.819 88.0392 278.973 85.0663C279.652 83.3386 280.932 81.8836 282.821 80.7085C284.73 79.5053 287.633 78.4281 291.522 77.4558C295.482 76.4625 299.448 75.4692 303.414 74.476C301.015 79.96 298.615 85.577 296.216 91.3129C293.558 92.1173 290.893 92.9217 288.235 93.7191ZM308.975 82.4502C307.338 82.9119 305.701 83.3806 304.064 83.8422C304.869 81.31 305.68 78.7919 306.485 76.3016C306.911 75.3223 307.345 74.35 307.772 73.3777C310.122 72.7902 312.472 72.2026 314.816 71.615C314.396 72.5593 313.976 73.5107 313.557 74.462C312.032 77.0851 310.5 79.7502 308.975 82.4502ZM307.492 87.9133C305.24 88.5918 302.994 89.2703 300.749 89.9488C301.329 88.5918 301.903 87.2488 302.477 85.9057C304.715 85.2622 306.953 84.6117 309.192 83.9681C308.625 85.2762 308.059 86.5912 307.492 87.9133Z" fill="#FEF4FF"/>
</svg>
