<svg width="66" height="110" viewBox="0 0 66 110" fill="none" xmlns="http://www.w3.org/2000/svg">
<path d="M30.3898 90.0459L37.5115 90.1626V109.076H30.3898V90.0459ZM31.2071 88.5281V20.8145L36.6942 19.8805V88.7616L31.2071 88.5281ZM30.3898 0.850609H37.5115V18.8298L30.3898 19.7637V0.850609ZM56.3078 32.606C55.6074 31.7498 54.4788 30.8548 52.9222 29.9208C51.4434 28.909 49.6921 27.975 47.6685 27.1188C45.7227 26.2627 43.5823 25.5622 41.2474 25.0174C38.9124 24.4726 36.4996 24.2002 34.009 24.2002C28.5608 24.2002 24.5135 25.212 21.8673 27.2356C19.221 29.2592 17.8978 32.0612 17.8978 35.6414C17.8978 38.2877 18.6372 40.3892 20.116 41.9458C21.5949 43.4246 23.852 44.6699 26.8874 45.6817C29.9229 46.6935 33.7366 47.7832 38.3287 48.9507C43.9326 50.2738 48.7971 51.8694 52.9222 53.7373C57.0472 55.5275 60.1994 57.9402 62.3787 60.9757C64.558 64.0111 65.6477 68.0195 65.6477 73.0007C65.6477 77.2036 64.8693 80.8228 63.3127 83.8582C61.7561 86.8937 59.5768 89.3843 56.7748 91.3301C53.9729 93.1981 50.7429 94.599 47.0848 95.533C43.4267 96.3892 39.4962 96.8172 35.2933 96.8172C31.0903 96.8172 26.9652 96.3892 22.918 95.533C18.8707 94.6769 14.9791 93.4316 11.2432 91.7971C7.58513 90.0848 4.16053 88.0222 0.969422 85.6095L7.0403 74.4017C8.05212 75.4135 9.49201 76.542 11.36 77.7874C13.2279 78.9548 15.4461 80.0834 18.0146 81.173C20.583 82.2627 23.3461 83.1967 26.3037 83.975C29.3391 84.6755 32.4135 85.0257 35.5267 85.0257C40.6636 85.0257 44.6331 84.1306 47.435 82.3405C50.237 80.4726 51.6379 77.8263 51.6379 74.4017C51.6379 71.5997 50.704 69.3815 48.836 67.7471C47.0459 66.0348 44.4385 64.5949 41.0139 63.4274C37.6671 62.2599 33.6199 61.0924 28.8721 59.925C23.4239 58.4462 18.8707 56.8506 15.2126 55.1383C11.5545 53.3482 8.79152 51.091 6.92356 48.3669C5.13342 45.565 4.23836 42.0236 4.23836 37.7429C4.23836 32.2947 5.5615 27.7026 8.20778 23.9667C10.8541 20.1529 14.4343 17.312 18.9486 15.4441C23.5406 13.4983 28.6386 12.5254 34.2425 12.5254C38.0563 12.5254 41.6365 12.9535 44.9833 13.8096C48.3301 14.5879 51.4434 15.6776 54.3231 17.0785C57.2807 18.4795 59.927 20.0751 62.262 21.8652L56.3078 32.606Z" fill="url(#paint0_linear_425_692)"/>
<defs>
<linearGradient id="paint0_linear_425_692" x1="-3" y1="54.5" x2="107.979" y2="60.1537" gradientUnits="userSpaceOnUse">
<stop stop-color="#F31260"/>
<stop offset="1" stop-color="#B39E00"/>
</linearGradient>
</defs>
</svg>
